<svg width="247" height="93" viewBox="0 0 247 93" fill="none" xmlns="http://www.w3.org/2000/svg">
<mask id="mask0_118_5" style="mask-type:luminance" maskUnits="userSpaceOnUse" x="0" y="0" width="88" height="88">
<path d="M87.4774 0H0V88H87.4774V0Z" fill="white"/>
</mask>
<g mask="url(#mask0_118_5)">
<path fill-rule="evenodd" clip-rule="evenodd" d="M43.6084 0C19.4941 0 0 20.1667 0 45.1156C0 65.0586 12.4905 81.9399 29.8182 87.9147C31.9846 88.3639 32.7781 86.944 32.7781 85.7496C32.7781 84.7037 32.7067 81.1186 32.7067 77.3832C20.5759 80.0727 18.0498 72.0051 18.0498 72.0051C16.1003 66.7764 13.2118 65.4326 13.2118 65.4326C9.24136 62.6688 13.501 62.6688 13.501 62.6688C17.9052 62.9677 20.2162 67.2998 20.2162 67.2998C24.1143 74.1712 30.3957 72.2297 32.9228 71.0343C33.2834 68.1212 34.4393 66.1045 35.6667 64.9843C25.9915 63.9384 15.812 60.0545 15.812 42.7249C15.812 37.7951 17.5437 33.7618 20.2876 30.6249C19.8547 29.5048 18.3381 24.8728 20.7214 18.6734C20.7214 18.6734 24.4035 17.4781 32.7058 23.3044C36.2604 22.3169 39.9261 21.8145 43.6084 21.8102C47.2905 21.8102 51.044 22.3337 54.51 23.3044C62.8133 17.4781 66.4953 18.6734 66.4953 18.6734C68.8787 24.8728 67.3612 29.5048 66.9283 30.6249C69.7445 33.7618 71.4048 37.7951 71.4048 42.7249C71.4048 60.0545 61.2253 63.8632 51.4778 64.9843C53.0667 66.4033 54.4377 69.0919 54.4377 73.3498C54.4377 79.3998 54.3663 84.2554 54.3663 85.7487C54.3663 86.944 55.1608 88.3639 57.3263 87.9157C74.6539 81.939 87.1445 65.0586 87.1445 45.1156C87.2159 20.1667 67.6504 0 43.6084 0Z" fill="#38BDF8"/>
</g>
<path d="M58.233 26.0909V61H51.858L36.6705 39.0284H36.4148V61H29.0341V26.0909H35.5114L50.5795 48.0455H50.8864V26.0909H58.233ZM104.989 61.4943C103.318 61.4943 101.83 61.2045 100.523 60.625C99.2159 60.0341 98.1818 59.1648 97.4205 58.017C96.6705 56.858 96.2955 55.4148 96.2955 53.6875C96.2955 52.233 96.5625 51.0114 97.0966 50.0227C97.6307 49.0341 98.358 48.2386 99.2784 47.6364C100.199 47.0341 101.244 46.5795 102.415 46.2727C103.597 45.9659 104.835 45.75 106.131 45.625C107.653 45.4659 108.881 45.3182 109.812 45.1818C110.744 45.0341 111.42 44.8182 111.841 44.5341C112.261 44.25 112.472 43.8295 112.472 43.2727V43.1705C112.472 42.0909 112.131 41.2557 111.449 40.6648C110.778 40.0739 109.824 39.7784 108.585 39.7784C107.278 39.7784 106.239 40.0682 105.466 40.6477C104.693 41.2159 104.182 41.9318 103.932 42.7955L97.2159 42.25C97.5568 40.6591 98.2273 39.2841 99.2273 38.125C100.227 36.9545 101.517 36.0568 103.097 35.4318C104.688 34.7955 106.528 34.4773 108.619 34.4773C110.074 34.4773 111.466 34.6477 112.795 34.9886C114.136 35.3295 115.324 35.858 116.358 36.5739C117.403 37.2898 118.227 38.2102 118.83 39.3352C119.432 40.4489 119.733 41.7841 119.733 43.3409V61H112.847V57.3693H112.642C112.222 58.1875 111.659 58.9091 110.955 59.5341C110.25 60.1477 109.403 60.6307 108.415 60.983C107.426 61.3239 106.284 61.4943 104.989 61.4943ZM107.068 56.483C108.136 56.483 109.08 56.2727 109.898 55.8523C110.716 55.4205 111.358 54.8409 111.824 54.1136C112.29 53.3864 112.523 52.5625 112.523 51.642V48.8636C112.295 49.0114 111.983 49.1477 111.585 49.2727C111.199 49.3864 110.761 49.4943 110.273 49.5966C109.784 49.6875 109.295 49.7727 108.807 49.8523C108.318 49.9205 107.875 49.983 107.477 50.0398C106.625 50.1648 105.881 50.3636 105.244 50.6364C104.608 50.9091 104.114 51.2784 103.761 51.7443C103.409 52.1989 103.233 52.767 103.233 53.4489C103.233 54.4375 103.591 55.1932 104.307 55.7159C105.034 56.2273 105.955 56.483 107.068 56.483ZM128.912 70.8182C127.991 70.8182 127.128 70.7443 126.321 70.5966C125.526 70.4602 124.866 70.2841 124.344 70.0682L125.98 64.6477C126.832 64.9091 127.599 65.0511 128.281 65.0739C128.974 65.0966 129.571 64.9375 130.071 64.5966C130.582 64.2557 130.997 63.6761 131.315 62.858L131.741 61.75L122.349 34.8182H129.986L135.406 54.0455H135.679L141.151 34.8182H148.838L138.662 63.8295C138.173 65.2386 137.509 66.4659 136.668 67.5114C135.838 68.5682 134.787 69.3807 133.514 69.9489C132.241 70.5284 130.707 70.8182 128.912 70.8182ZM159.317 61.4943C157.646 61.4943 156.158 61.2045 154.851 60.625C153.544 60.0341 152.51 59.1648 151.749 58.017C150.999 56.858 150.624 55.4148 150.624 53.6875C150.624 52.233 150.891 51.0114 151.425 50.0227C151.959 49.0341 152.686 48.2386 153.607 47.6364C154.527 47.0341 155.572 46.5795 156.743 46.2727C157.925 45.9659 159.163 45.75 160.459 45.625C161.982 45.4659 163.209 45.3182 164.141 45.1818C165.072 45.0341 165.749 44.8182 166.169 44.5341C166.589 44.25 166.8 43.8295 166.8 43.2727V43.1705C166.8 42.0909 166.459 41.2557 165.777 40.6648C165.107 40.0739 164.152 39.7784 162.913 39.7784C161.607 39.7784 160.567 40.0682 159.794 40.6477C159.021 41.2159 158.51 41.9318 158.26 42.7955L151.544 42.25C151.885 40.6591 152.555 39.2841 153.555 38.125C154.555 36.9545 155.845 36.0568 157.425 35.4318C159.016 34.7955 160.857 34.4773 162.947 34.4773C164.402 34.4773 165.794 34.6477 167.124 34.9886C168.464 35.3295 169.652 35.858 170.686 36.5739C171.732 37.2898 172.555 38.2102 173.158 39.3352C173.76 40.4489 174.061 41.7841 174.061 43.3409V61H167.175V57.3693H166.97C166.55 58.1875 165.987 58.9091 165.283 59.5341C164.578 60.1477 163.732 60.6307 162.743 60.983C161.754 61.3239 160.612 61.4943 159.317 61.4943ZM161.396 56.483C162.464 56.483 163.408 56.2727 164.226 55.8523C165.044 55.4205 165.686 54.8409 166.152 54.1136C166.618 53.3864 166.851 52.5625 166.851 51.642V48.8636C166.624 49.0114 166.311 49.1477 165.913 49.2727C165.527 49.3864 165.089 49.4943 164.601 49.5966C164.112 49.6875 163.624 49.7727 163.135 49.8523C162.646 49.9205 162.203 49.983 161.805 50.0398C160.953 50.1648 160.209 50.3636 159.572 50.6364C158.936 50.9091 158.442 51.2784 158.089 51.7443C157.737 52.1989 157.561 52.767 157.561 53.4489C157.561 54.4375 157.919 55.1932 158.635 55.7159C159.362 56.2273 160.283 56.483 161.396 56.483ZM178.919 61V57.0114L188.239 48.3821C189.031 47.6151 189.696 46.9247 190.233 46.3111C190.778 45.6974 191.192 45.0966 191.473 44.5085C191.754 43.9119 191.895 43.2685 191.895 42.5781C191.895 41.8111 191.72 41.1506 191.371 40.5966C191.021 40.0341 190.544 39.6037 189.939 39.3054C189.334 38.9986 188.648 38.8452 187.881 38.8452C187.08 38.8452 186.381 39.0071 185.784 39.331C185.188 39.6548 184.727 40.1193 184.403 40.7244C184.08 41.3295 183.918 42.0497 183.918 42.8849H178.663C178.663 41.1719 179.051 39.6847 179.827 38.4233C180.602 37.1619 181.689 36.1861 183.087 35.4957C184.484 34.8054 186.095 34.4602 187.919 34.4602C189.794 34.4602 191.426 34.7926 192.815 35.4574C194.213 36.1136 195.3 37.0256 196.075 38.1932C196.851 39.3608 197.239 40.6989 197.239 42.2074C197.239 43.196 197.043 44.1719 196.651 45.1349C196.267 46.098 195.581 47.1676 194.592 48.3438C193.604 49.5114 192.21 50.9134 190.412 52.5497L186.589 56.2955V56.4744H197.584V61H178.919ZM211.157 61.358C209.35 61.358 207.74 61.0256 206.325 60.3608C204.919 59.696 203.802 58.7798 202.975 57.6122C202.149 56.4446 201.718 55.1065 201.684 53.598H207.054C207.113 54.6122 207.539 55.4347 208.332 56.0653C209.125 56.696 210.066 57.0114 211.157 57.0114C212.027 57.0114 212.794 56.8196 213.458 56.4361C214.132 56.044 214.656 55.5028 215.031 54.8125C215.414 54.1136 215.606 53.3125 215.606 52.4091C215.606 51.4886 215.41 50.679 215.018 49.9801C214.635 49.2812 214.102 48.7358 213.42 48.3438C212.738 47.9517 211.958 47.7514 211.081 47.7429C210.314 47.7429 209.568 47.9006 208.843 48.2159C208.127 48.5312 207.569 48.9616 207.169 49.5071L202.247 48.625L203.487 34.8182H219.493V39.3438H208.051L207.373 45.902H207.527C207.987 45.2543 208.681 44.7173 209.61 44.2912C210.539 43.8651 211.579 43.652 212.73 43.652C214.306 43.652 215.713 44.0227 216.949 44.7642C218.184 45.5057 219.16 46.5241 219.876 47.8196C220.592 49.1065 220.946 50.5895 220.937 52.2685C220.946 54.0327 220.537 55.6009 219.71 56.973C218.892 58.3366 217.745 59.4105 216.271 60.1946C214.805 60.9702 213.1 61.358 211.157 61.358ZM224.798 61V57.0114L234.118 48.3821C234.91 47.6151 235.575 46.9247 236.112 46.3111C236.657 45.6974 237.071 45.0966 237.352 44.5085C237.633 43.9119 237.774 43.2685 237.774 42.5781C237.774 41.8111 237.599 41.1506 237.25 40.5966C236.9 40.0341 236.423 39.6037 235.818 39.3054C235.213 38.9986 234.527 38.8452 233.76 38.8452C232.958 38.8452 232.26 39.0071 231.663 39.331C231.066 39.6548 230.606 40.1193 230.282 40.7244C229.958 41.3295 229.797 42.0497 229.797 42.8849H224.542C224.542 41.1719 224.93 39.6847 225.706 38.4233C226.481 37.1619 227.568 36.1861 228.966 35.4957C230.363 34.8054 231.974 34.4602 233.798 34.4602C235.673 34.4602 237.305 34.7926 238.694 35.4574C240.092 36.1136 241.179 37.0256 241.954 38.1932C242.73 39.3608 243.118 40.6989 243.118 42.2074C243.118 43.196 242.922 44.1719 242.529 45.1349C242.146 46.098 241.46 47.1676 240.471 48.3438C239.483 49.5114 238.089 50.9134 236.291 52.5497L232.468 56.2955V56.4744H243.463V61H224.798Z" fill="#38BDF8"/>
<path d="M137.161 92.6181V89.9703L143.028 84.2419C143.527 83.7326 143.945 83.2744 144.284 82.867C144.627 82.4597 144.887 82.0608 145.064 81.6704C145.241 81.2744 145.33 80.8472 145.33 80.3889C145.33 79.8798 145.22 79.4413 145 79.0735C144.78 78.7001 144.48 78.4144 144.098 78.2164C143.718 78.0127 143.286 77.9109 142.803 77.9109C142.298 77.9109 141.859 78.0183 141.483 78.2334C141.107 78.4483 140.818 78.7567 140.614 79.1584C140.41 79.5601 140.308 80.0382 140.308 80.5927H137C137 79.4554 137.244 78.4682 137.732 77.6308C138.22 76.7935 138.905 76.1457 139.785 75.6874C140.665 75.2291 141.678 75 142.827 75C144.007 75 145.035 75.2206 145.909 75.6619C146.789 76.0976 147.474 76.7029 147.961 77.4781C148.45 78.2531 148.694 79.1414 148.694 80.1428C148.694 80.7991 148.571 81.447 148.324 82.0863C148.083 82.7256 147.65 83.4356 147.028 84.2164C146.406 84.9915 145.528 85.9222 144.396 87.0085L141.99 89.495V89.6139H148.912V92.6181H137.161ZM157.9 93C156.515 92.9943 155.324 92.6351 154.326 91.9222C153.333 91.2093 152.568 90.1768 152.032 88.8246C151.501 87.4724 151.238 85.8458 151.243 83.9449C151.243 82.0495 151.509 80.4342 152.04 79.099C152.577 77.7638 153.341 76.7482 154.334 76.0523C155.332 75.3508 156.521 75 157.9 75C159.278 75 160.464 75.3508 161.457 76.0523C162.455 76.7539 163.222 77.7723 163.758 79.1075C164.295 80.437 164.561 82.0495 164.555 83.9449C164.555 85.8515 164.287 87.4809 163.75 88.8331C163.219 90.1853 162.457 91.2178 161.465 91.9307C160.472 92.6436 159.284 93 157.9 93ZM157.9 89.9533C158.844 89.9533 159.598 89.4526 160.161 88.4512C160.724 87.4498 161.003 85.9476 160.998 83.9449C160.998 82.6266 160.869 81.529 160.611 80.652C160.359 79.7751 160 79.116 159.533 78.6746C159.072 78.2334 158.527 78.0127 157.9 78.0127C156.96 78.0127 156.209 78.5078 155.646 79.4979C155.082 80.488 154.798 81.9703 154.793 83.9449C154.793 85.28 154.919 86.3946 155.171 87.2885C155.429 88.1768 155.791 88.8444 156.258 89.2914C156.724 89.7327 157.272 89.9533 157.9 89.9533ZM167.04 92.6181V89.9703L172.907 84.2419C173.406 83.7326 173.825 83.2744 174.163 82.867C174.506 82.4597 174.767 82.0608 174.944 81.6704C175.121 81.2744 175.209 80.8472 175.209 80.3889C175.209 79.8798 175.099 79.4413 174.879 79.0735C174.659 78.7001 174.359 78.4144 173.978 78.2164C173.597 78.0127 173.165 77.9109 172.682 77.9109C172.178 77.9109 171.738 78.0183 171.362 78.2334C170.986 78.4483 170.697 78.7567 170.493 79.1584C170.289 79.5601 170.187 80.0382 170.187 80.5927H166.879C166.879 79.4554 167.123 78.4682 167.612 77.6308C168.1 76.7935 168.784 76.1457 169.664 75.6874C170.544 75.2291 171.558 75 172.706 75C173.887 75 174.914 75.2206 175.789 75.6619C176.669 76.0976 177.353 76.7029 177.841 77.4781C178.33 78.2531 178.573 79.1414 178.573 80.1428C178.573 80.7991 178.45 81.447 178.203 82.0863C177.962 82.7256 177.53 83.4356 176.907 84.2164C176.285 84.9915 175.408 85.9222 174.276 87.0085L171.869 89.495V89.6139H178.791V92.6181H167.04ZM180.712 89.563V86.669L187.593 75.2376H189.96V79.2432H188.56L184.221 86.4823V86.6181H194V89.563H180.712ZM188.624 92.6181V88.6803L188.688 87.3989V75.2376H191.956V92.6181H188.624Z" fill="#38BDF8"/>
</svg>
